# xmcd
#
# Track frame offsets: 
#        150
#        16550
#        39637
#        48100
#        59875
#        72612
#        82600
#        93900
#        107700
#        122775
#        139300
#        153412
#
# Disc length: 2209 seconds
#
# Revision: 4
# Processed by: cddbd v1.5.2PL0 Copyright (c) Steve Scherf et al.
# Submitted via: ExactAudioCopy v0.95b4
#
DISCID=9b089f0c
DTITLE=Die Flippers - Hey, wenn die Sonne scheint
DYEAR=1993
DGENRE=Pop
TTITLE0=Komm auf meine Insel
TTITLE1=Manuela
TTITLE2=Jeden Tag in der Woche
TTITLE3=Nie kann ich Vergessen
TTITLE4=Hey wenn die Sonne Scheint
TTITLE5=Bleib`doch steh`n
TTITLE6=My Darling du allein
TTITLE7=Bye Bye bis Morgen
TTITLE8=Isabell
TTITLE9=Callifornia
TTITLE10=Freunde
TTITLE11=Weine nicht um Tommy
EXTD=
EXTT0=
EXTT1=
EXTT2=
EXTT3=
EXTT4=
EXTT5=
EXTT6=
EXTT7=
EXTT8=
EXTT9=
EXTT10=
EXTT11=
PLAYORDER=
